%TF.GenerationSoftware,Altium Limited,Altium Designer,23.5.1 (21)*%
G04 Layer_Color=8388736*
%FSLAX45Y45*%
%MOMM*%
%TF.SameCoordinates,DF551FB5-6F85-4ABD-ABAF-5ACF3DF1BB5E*%
%TF.FilePolarity,Negative*%
%TF.FileFunction,Soldermask,Top*%
%TF.Part,Single*%
G01*
G75*
%TA.AperFunction,SMDPad,CuDef*%
%ADD25R,1.40000X1.20000*%
%ADD43R,3.81000X4.24180*%
%TA.AperFunction,ViaPad*%
%ADD91C,0.45000*%
%TA.AperFunction,SMDPad,CuDef*%
%ADD99R,1.53000X1.21000*%
%ADD100R,1.96000X2.36000*%
%ADD101R,0.71000X0.56000*%
%ADD102R,0.56000X0.71000*%
G04:AMPARAMS|DCode=104|XSize=0.95mm|YSize=0.8mm|CornerRadius=0.225mm|HoleSize=0mm|Usage=FLASHONLY|Rotation=0.000|XOffset=0mm|YOffset=0mm|HoleType=Round|Shape=RoundedRectangle|*
%AMROUNDEDRECTD104*
21,1,0.95000,0.35000,0,0,0.0*
21,1,0.50000,0.80000,0,0,0.0*
1,1,0.45000,0.25000,-0.17500*
1,1,0.45000,-0.25000,-0.17500*
1,1,0.45000,-0.25000,0.17500*
1,1,0.45000,0.25000,0.17500*
%
%ADD104ROUNDEDRECTD104*%
%TA.AperFunction,ComponentPad*%
%ADD105C,1.76000*%
%ADD106C,1.71000*%
%ADD107O,1.26000X1.76000*%
%ADD108O,1.06000X1.46000*%
%ADD109O,3.06000X1.71000*%
%ADD110R,1.71000X1.71000*%
%TA.AperFunction,WasherPad*%
%ADD111C,3.06000*%
%TA.AperFunction,ViaPad*%
%ADD112C,0.56000*%
%ADD113C,0.51000*%
%TA.AperFunction,SMDPad,CuDef*%
G04:AMPARAMS|DCode=125|XSize=0.3394mm|YSize=1.5332mm|CornerRadius=0mm|HoleSize=0mm|Usage=FLASHONLY|Rotation=315.000|XOffset=0mm|YOffset=0mm|HoleType=Round|Shape=Rectangle|*
%AMROTATEDRECTD125*
4,1,4,-0.66206,-0.42207,0.42207,0.66206,0.66206,0.42207,-0.42207,-0.66206,-0.66206,-0.42207,0.0*
%
%ADD125ROTATEDRECTD125*%

G04:AMPARAMS|DCode=126|XSize=0.3394mm|YSize=1.5332mm|CornerRadius=0mm|HoleSize=0mm|Usage=FLASHONLY|Rotation=45.000|XOffset=0mm|YOffset=0mm|HoleType=Round|Shape=Rectangle|*
%AMROTATEDRECTD126*
4,1,4,0.42207,-0.66206,-0.66206,0.42207,-0.42207,0.66206,0.66206,-0.42207,0.42207,-0.66206,0.0*
%
%ADD126ROTATEDRECTD126*%

%ADD127P,14.22699X4X180.0*%
%ADD128R,1.86000X2.06000*%
%ADD129R,0.96000X1.26000*%
G04:AMPARAMS|DCode=130|XSize=0.85mm|YSize=0.7mm|CornerRadius=0.2mm|HoleSize=0mm|Usage=FLASHONLY|Rotation=90.000|XOffset=0mm|YOffset=0mm|HoleType=Round|Shape=RoundedRectangle|*
%AMROUNDEDRECTD130*
21,1,0.85000,0.30000,0,0,90.0*
21,1,0.45000,0.70000,0,0,90.0*
1,1,0.40000,0.15000,0.22500*
1,1,0.40000,0.15000,-0.22500*
1,1,0.40000,-0.15000,-0.22500*
1,1,0.40000,-0.15000,0.22500*
%
%ADD130ROUNDEDRECTD130*%
%ADD131O,0.66000X1.96000*%
G04:AMPARAMS|DCode=132|XSize=1.62mm|YSize=0.34mm|CornerRadius=0.065mm|HoleSize=0mm|Usage=FLASHONLY|Rotation=180.000|XOffset=0mm|YOffset=0mm|HoleType=Round|Shape=RoundedRectangle|*
%AMROUNDEDRECTD132*
21,1,1.62000,0.21000,0,0,180.0*
21,1,1.49000,0.34000,0,0,180.0*
1,1,0.13000,-0.74500,0.10500*
1,1,0.13000,0.74500,0.10500*
1,1,0.13000,0.74500,-0.10500*
1,1,0.13000,-0.74500,-0.10500*
%
%ADD132ROUNDEDRECTD132*%
G04:AMPARAMS|DCode=133|XSize=1.62mm|YSize=0.34mm|CornerRadius=0.065mm|HoleSize=0mm|Usage=FLASHONLY|Rotation=270.000|XOffset=0mm|YOffset=0mm|HoleType=Round|Shape=RoundedRectangle|*
%AMROUNDEDRECTD133*
21,1,1.62000,0.21000,0,0,270.0*
21,1,1.49000,0.34000,0,0,270.0*
1,1,0.13000,-0.10500,-0.74500*
1,1,0.13000,-0.10500,0.74500*
1,1,0.13000,0.10500,0.74500*
1,1,0.13000,0.10500,-0.74500*
%
%ADD133ROUNDEDRECTD133*%
G04:AMPARAMS|DCode=134|XSize=0.85mm|YSize=0.7mm|CornerRadius=0.2mm|HoleSize=0mm|Usage=FLASHONLY|Rotation=0.000|XOffset=0mm|YOffset=0mm|HoleType=Round|Shape=RoundedRectangle|*
%AMROUNDEDRECTD134*
21,1,0.85000,0.30000,0,0,0.0*
21,1,0.45000,0.70000,0,0,0.0*
1,1,0.40000,0.22500,-0.15000*
1,1,0.40000,-0.22500,-0.15000*
1,1,0.40000,-0.22500,0.15000*
1,1,0.40000,0.22500,0.15000*
%
%ADD134ROUNDEDRECTD134*%
G04:AMPARAMS|DCode=135|XSize=0.55mm|YSize=0.5mm|CornerRadius=0.15mm|HoleSize=0mm|Usage=FLASHONLY|Rotation=270.000|XOffset=0mm|YOffset=0mm|HoleType=Round|Shape=RoundedRectangle|*
%AMROUNDEDRECTD135*
21,1,0.55000,0.20000,0,0,270.0*
21,1,0.25000,0.50000,0,0,270.0*
1,1,0.30000,-0.10000,-0.12500*
1,1,0.30000,-0.10000,0.12500*
1,1,0.30000,0.10000,0.12500*
1,1,0.30000,0.10000,-0.12500*
%
%ADD135ROUNDEDRECTD135*%
G04:AMPARAMS|DCode=136|XSize=0.64mm|YSize=0.6mm|CornerRadius=0.175mm|HoleSize=0mm|Usage=FLASHONLY|Rotation=0.000|XOffset=0mm|YOffset=0mm|HoleType=Round|Shape=RoundedRectangle|*
%AMROUNDEDRECTD136*
21,1,0.64000,0.25000,0,0,0.0*
21,1,0.29000,0.60000,0,0,0.0*
1,1,0.35000,0.14500,-0.12500*
1,1,0.35000,-0.14500,-0.12500*
1,1,0.35000,-0.14500,0.12500*
1,1,0.35000,0.14500,0.12500*
%
%ADD136ROUNDEDRECTD136*%
G04:AMPARAMS|DCode=137|XSize=1.38mm|YSize=0.86mm|CornerRadius=0.24mm|HoleSize=0mm|Usage=FLASHONLY|Rotation=0.000|XOffset=0mm|YOffset=0mm|HoleType=Round|Shape=RoundedRectangle|*
%AMROUNDEDRECTD137*
21,1,1.38000,0.38000,0,0,0.0*
21,1,0.90000,0.86000,0,0,0.0*
1,1,0.48000,0.45000,-0.19000*
1,1,0.48000,-0.45000,-0.19000*
1,1,0.48000,-0.45000,0.19000*
1,1,0.48000,0.45000,0.19000*
%
%ADD137ROUNDEDRECTD137*%
%ADD138R,0.30000X0.30000*%
G04:AMPARAMS|DCode=139|XSize=0.46mm|YSize=1.81mm|CornerRadius=0.13mm|HoleSize=0mm|Usage=FLASHONLY|Rotation=180.000|XOffset=0mm|YOffset=0mm|HoleType=Round|Shape=RoundedRectangle|*
%AMROUNDEDRECTD139*
21,1,0.46000,1.55000,0,0,180.0*
21,1,0.20000,1.81000,0,0,180.0*
1,1,0.26000,-0.10000,0.77500*
1,1,0.26000,0.10000,0.77500*
1,1,0.26000,0.10000,-0.77500*
1,1,0.26000,-0.10000,-0.77500*
%
%ADD139ROUNDEDRECTD139*%
%ADD140R,0.46000X1.81000*%
%ADD141R,1.48500X2.56000*%
G04:AMPARAMS|DCode=142|XSize=0.62mm|YSize=0.59mm|CornerRadius=0.1725mm|HoleSize=0mm|Usage=FLASHONLY|Rotation=0.000|XOffset=0mm|YOffset=0mm|HoleType=Round|Shape=RoundedRectangle|*
%AMROUNDEDRECTD142*
21,1,0.62000,0.24500,0,0,0.0*
21,1,0.27500,0.59000,0,0,0.0*
1,1,0.34500,0.13750,-0.12250*
1,1,0.34500,-0.13750,-0.12250*
1,1,0.34500,-0.13750,0.12250*
1,1,0.34500,0.13750,0.12250*
%
%ADD142ROUNDEDRECTD142*%
%ADD143R,0.62000X0.59000*%
G04:AMPARAMS|DCode=144|XSize=0.55mm|YSize=0.5mm|CornerRadius=0.15mm|HoleSize=0mm|Usage=FLASHONLY|Rotation=180.000|XOffset=0mm|YOffset=0mm|HoleType=Round|Shape=RoundedRectangle|*
%AMROUNDEDRECTD144*
21,1,0.55000,0.20000,0,0,180.0*
21,1,0.25000,0.50000,0,0,180.0*
1,1,0.30000,-0.12500,0.10000*
1,1,0.30000,0.12500,0.10000*
1,1,0.30000,0.12500,-0.10000*
1,1,0.30000,-0.12500,-0.10000*
%
%ADD144ROUNDEDRECTD144*%
%ADD145R,0.31000X0.96640*%
%ADD146R,0.96640X0.31000*%
%ADD147R,2.51000X2.51000*%
%ADD148R,0.56000X0.69500*%
%ADD149R,0.96000X1.06000*%
%ADD150R,0.69500X0.56000*%
%ADD151R,1.58000X2.60000*%
%ADD152R,2.06000X1.56000*%
%ADD153R,1.16000X2.06000*%
%ADD154R,0.86000X0.86000*%
%ADD155R,4.86000X4.86000*%
%ADD156R,1.46000X1.36000*%
G04:AMPARAMS|DCode=157|XSize=0.96mm|YSize=1.06mm|CornerRadius=0mm|HoleSize=0mm|Usage=FLASHONLY|Rotation=45.000|XOffset=0mm|YOffset=0mm|HoleType=Round|Shape=Rectangle|*
%AMROTATEDRECTD157*
4,1,4,0.03535,-0.71418,-0.71418,0.03535,-0.03535,0.71418,0.71418,-0.03535,0.03535,-0.71418,0.0*
%
%ADD157ROTATEDRECTD157*%

G04:AMPARAMS|DCode=158|XSize=1.86mm|YSize=0.66mm|CornerRadius=0.105mm|HoleSize=0mm|Usage=FLASHONLY|Rotation=0.000|XOffset=0mm|YOffset=0mm|HoleType=Round|Shape=RoundedRectangle|*
%AMROUNDEDRECTD158*
21,1,1.86000,0.45000,0,0,0.0*
21,1,1.65000,0.66000,0,0,0.0*
1,1,0.21000,0.82500,-0.22500*
1,1,0.21000,-0.82500,-0.22500*
1,1,0.21000,-0.82500,0.22500*
1,1,0.21000,0.82500,0.22500*
%
%ADD158ROUNDEDRECTD158*%
%ADD159R,1.06000X0.96000*%
%ADD160R,1.16000X1.26000*%
%ADD161R,1.21000X1.53000*%
G04:AMPARAMS|DCode=162|XSize=0.56mm|YSize=0.71mm|CornerRadius=0mm|HoleSize=0mm|Usage=FLASHONLY|Rotation=315.000|XOffset=0mm|YOffset=0mm|HoleType=Round|Shape=Rectangle|*
%AMROTATEDRECTD162*
4,1,4,-0.44901,-0.05303,0.05303,0.44901,0.44901,0.05303,-0.05303,-0.44901,-0.44901,-0.05303,0.0*
%
%ADD162ROTATEDRECTD162*%

G04:AMPARAMS|DCode=163|XSize=0.56mm|YSize=0.71mm|CornerRadius=0mm|HoleSize=0mm|Usage=FLASHONLY|Rotation=45.000|XOffset=0mm|YOffset=0mm|HoleType=Round|Shape=Rectangle|*
%AMROTATEDRECTD163*
4,1,4,0.05303,-0.44901,-0.44901,0.05303,-0.05303,0.44901,0.44901,-0.05303,0.05303,-0.44901,0.0*
%
%ADD163ROTATEDRECTD163*%

%ADD164R,1.56012X1.35997*%
%ADD165R,1.35997X1.56012*%
G04:AMPARAMS|DCode=166|XSize=1.56mm|YSize=0.51mm|CornerRadius=0.08625mm|HoleSize=0mm|Usage=FLASHONLY|Rotation=180.000|XOffset=0mm|YOffset=0mm|HoleType=Round|Shape=RoundedRectangle|*
%AMROUNDEDRECTD166*
21,1,1.56000,0.33750,0,0,180.0*
21,1,1.38750,0.51000,0,0,180.0*
1,1,0.17250,-0.69375,0.16875*
1,1,0.17250,0.69375,0.16875*
1,1,0.17250,0.69375,-0.16875*
1,1,0.17250,-0.69375,-0.16875*
%
%ADD166ROUNDEDRECTD166*%
G04:AMPARAMS|DCode=167|XSize=1.63mm|YSize=0.51mm|CornerRadius=0.08625mm|HoleSize=0mm|Usage=FLASHONLY|Rotation=0.000|XOffset=0mm|YOffset=0mm|HoleType=Round|Shape=RoundedRectangle|*
%AMROUNDEDRECTD167*
21,1,1.63000,0.33750,0,0,0.0*
21,1,1.45750,0.51000,0,0,0.0*
1,1,0.17250,0.72875,-0.16875*
1,1,0.17250,-0.72875,-0.16875*
1,1,0.17250,-0.72875,0.16875*
1,1,0.17250,0.72875,0.16875*
%
%ADD167ROUNDEDRECTD167*%
%ADD168R,2.06000X1.36000*%
%ADD169R,0.86000X0.48000*%
%ADD170R,2.06000X0.66000*%
%TA.AperFunction,BGAPad,CuDef*%
%ADD171C,0.41000*%
%TA.AperFunction,SMDPad,CuDef*%
%ADD172R,1.16000X2.21000*%
%ADD173R,0.86000X0.96000*%
%ADD174R,0.86000X0.96000*%
G04:AMPARAMS|DCode=175|XSize=0.64mm|YSize=0.6mm|CornerRadius=0.175mm|HoleSize=0mm|Usage=FLASHONLY|Rotation=270.000|XOffset=0mm|YOffset=0mm|HoleType=Round|Shape=RoundedRectangle|*
%AMROUNDEDRECTD175*
21,1,0.64000,0.25000,0,0,270.0*
21,1,0.29000,0.60000,0,0,270.0*
1,1,0.35000,-0.12500,-0.14500*
1,1,0.35000,-0.12500,0.14500*
1,1,0.35000,0.12500,0.14500*
1,1,0.35000,0.12500,-0.14500*
%
%ADD175ROUNDEDRECTD175*%
%TA.AperFunction,Conductor*%
%ADD176R,2.06000X1.52000*%
G36*
X9135981Y1709929D02*
X9136924Y1709643D01*
X9137792Y1709178D01*
X9138554Y1708554D01*
X9139179Y1707792D01*
X9139643Y1706924D01*
X9139929Y1705981D01*
X9140025Y1705001D01*
Y1615001D01*
X9139929Y1614021D01*
X9139643Y1613079D01*
X9139179Y1612210D01*
X9138554Y1611449D01*
X9137792Y1610824D01*
X9136924Y1610360D01*
X9135981Y1610074D01*
X9135001Y1609977D01*
X9030001D01*
X9029273Y1610049D01*
X9029026Y1610073D01*
X9029025Y1610073D01*
X9029021Y1610074D01*
X9028481Y1610238D01*
X9028084Y1610358D01*
X9028081Y1610359D01*
X9028079Y1610360D01*
X9027714Y1610555D01*
X9027214Y1610821D01*
X9027212Y1610823D01*
X9027210Y1610824D01*
X9026807Y1611154D01*
X9026452Y1611445D01*
X9026451Y1611446D01*
X9026449Y1611449D01*
X9026050Y1611935D01*
X9025827Y1612206D01*
X9025826Y1612208D01*
X9025824Y1612210D01*
X9025560Y1612705D01*
X9025362Y1613074D01*
X9025361Y1613076D01*
X9025360Y1613079D01*
X9025213Y1613563D01*
X9025075Y1614016D01*
X9025074Y1614019D01*
X9025074Y1614021D01*
X9025011Y1614658D01*
X9024977Y1614996D01*
X9024978Y1614997D01*
X9024977Y1615001D01*
X9025049Y1615730D01*
X9025073Y1615976D01*
X9025073Y1615978D01*
X9025074Y1615982D01*
X9025238Y1616522D01*
X9025358Y1616919D01*
X9025359Y1616922D01*
X9025360Y1616924D01*
X9025555Y1617289D01*
X9025821Y1617788D01*
X9053963Y1660001D01*
X9025821Y1702214D01*
X9025555Y1702714D01*
X9025360Y1703079D01*
X9025359Y1703081D01*
X9025358Y1703083D01*
X9025210Y1703573D01*
X9025074Y1704021D01*
X9025073Y1704024D01*
X9025073Y1704026D01*
X9025025Y1704512D01*
X9024977Y1705001D01*
X9024977Y1705004D01*
X9024977Y1705006D01*
X9025042Y1705661D01*
X9025074Y1705981D01*
X9025074Y1705983D01*
X9025074Y1705986D01*
X9025241Y1706532D01*
X9025360Y1706924D01*
X9025361Y1706926D01*
X9025362Y1706929D01*
X9025583Y1707341D01*
X9025824Y1707792D01*
X9025826Y1707794D01*
X9025827Y1707797D01*
X9026102Y1708131D01*
X9026449Y1708554D01*
X9026451Y1708556D01*
X9026452Y1708557D01*
X9026807Y1708848D01*
X9027210Y1709178D01*
X9027212Y1709179D01*
X9027214Y1709181D01*
X9027837Y1709513D01*
X9028079Y1709643D01*
X9028080Y1709643D01*
X9028084Y1709645D01*
X9028658Y1709819D01*
X9029021Y1709929D01*
X9029024Y1709929D01*
X9029026Y1709930D01*
X9029512Y1709977D01*
X9030001Y1710025D01*
X9135001D01*
X9135981Y1709929D01*
D02*
G37*
G36*
X9000005Y1710025D02*
X9000007Y1710025D01*
X9000344Y1709991D01*
X9000981Y1709929D01*
X9000984Y1709928D01*
X9000987Y1709928D01*
X9001440Y1709790D01*
X9001924Y1709643D01*
X9001926Y1709641D01*
X9001929Y1709641D01*
X9002298Y1709443D01*
X9002793Y1709178D01*
X9002795Y1709176D01*
X9002797Y1709175D01*
X9003068Y1708953D01*
X9003554Y1708554D01*
X9003556Y1708551D01*
X9003558Y1708550D01*
X9003848Y1708195D01*
X9004179Y1707792D01*
X9004180Y1707791D01*
X9004182Y1707788D01*
X9034182Y1662788D01*
X9034445Y1662293D01*
X9034641Y1661929D01*
X9034642Y1661924D01*
X9034645Y1661919D01*
X9034791Y1661435D01*
X9034928Y1660987D01*
X9034928Y1660981D01*
X9034930Y1660976D01*
X9034983Y1660428D01*
X9035025Y1660007D01*
X9035025Y1660003D01*
X9035025Y1659996D01*
X9034957Y1659302D01*
X9034930Y1659026D01*
X9034929Y1659024D01*
X9034928Y1659016D01*
X9034763Y1658475D01*
X9034645Y1658084D01*
X9034642Y1658079D01*
X9034641Y1658074D01*
X9034435Y1657689D01*
X9034182Y1657214D01*
X9004182Y1612214D01*
X9004180Y1612212D01*
X9004179Y1612210D01*
X9003848Y1611808D01*
X9003558Y1611452D01*
X9003556Y1611451D01*
X9003554Y1611449D01*
X9003144Y1611112D01*
X9002797Y1610827D01*
X9002794Y1610825D01*
X9002793Y1610824D01*
X9002389Y1610608D01*
X9001929Y1610362D01*
X9001926Y1610361D01*
X9001924Y1610360D01*
X9001532Y1610241D01*
X9000987Y1610075D01*
X9000983Y1610074D01*
X9000981Y1610074D01*
X9000661Y1610042D01*
X9000007Y1609977D01*
X9000004Y1609977D01*
X9000001Y1609977D01*
X8925001D01*
X8924021Y1610074D01*
X8923079Y1610360D01*
X8922210Y1610824D01*
X8921449Y1611449D01*
X8920824Y1612210D01*
X8920360Y1613079D01*
X8920074Y1614021D01*
X8919977Y1615001D01*
Y1705001D01*
X8920074Y1705981D01*
X8920360Y1706924D01*
X8920824Y1707792D01*
X8921449Y1708554D01*
X8922210Y1709178D01*
X8923079Y1709643D01*
X8924021Y1709929D01*
X8925001Y1710025D01*
X9000001D01*
X9000005Y1710025D01*
D02*
G37*
G36*
X10300589Y377958D02*
X10301155Y377786D01*
X10301676Y377508D01*
X10302133Y377133D01*
X10302507Y376676D01*
X10302786Y376155D01*
X10302958Y375589D01*
X10303015Y375001D01*
Y305000D01*
Y100001D01*
Y97801D01*
X10303009Y97733D01*
X10303012Y97664D01*
X10302912Y95464D01*
X10302881Y95249D01*
X10302862Y95037D01*
X10302462Y92937D01*
X10302458Y92924D01*
X10302457Y92910D01*
X10302057Y90910D01*
X10302042Y90860D01*
X10302035Y90811D01*
X10301635Y89110D01*
X10301609Y89033D01*
X10301593Y88950D01*
X10301093Y87250D01*
X10301052Y87149D01*
X10301024Y87043D01*
X10299824Y83842D01*
X10299784Y83761D01*
X10299756Y83676D01*
X10298156Y80077D01*
X10298048Y79888D01*
X10297953Y79696D01*
X10295753Y76197D01*
X10295707Y76137D01*
X10295671Y76072D01*
X10293571Y73072D01*
X10293437Y72916D01*
X10293310Y72750D01*
X10290710Y69950D01*
X10290668Y69912D01*
X10290632Y69869D01*
X10287982Y67219D01*
X10287820Y67085D01*
X10287666Y66944D01*
X10284416Y64494D01*
X10284262Y64400D01*
X10284115Y64294D01*
X10281014Y62494D01*
X10280962Y62470D01*
X10280915Y62439D01*
X10277715Y60739D01*
X10277547Y60670D01*
X10277383Y60587D01*
X10273483Y59087D01*
X10273328Y59044D01*
X10273176Y58987D01*
X10269225Y57937D01*
X10269069Y57912D01*
X10268917Y57873D01*
X10264767Y57223D01*
X10264603Y57213D01*
X10264441Y57190D01*
X10260141Y56990D01*
X10260071Y56993D01*
X10260001Y56986D01*
X10210001D01*
X10209920Y56994D01*
X10209838Y56991D01*
X10206138Y57191D01*
X10206018Y57209D01*
X10205897Y57213D01*
X10202197Y57714D01*
X10202114Y57733D01*
X10202028Y57741D01*
X10198928Y58341D01*
X10198760Y58391D01*
X10198590Y58427D01*
X10194490Y59727D01*
X10194288Y59814D01*
X10194082Y59890D01*
X10190382Y61690D01*
X10190312Y61733D01*
X10190237Y61766D01*
X10186637Y63766D01*
X10186461Y63888D01*
X10186281Y63998D01*
X10182981Y66498D01*
X10182905Y66568D01*
X10182821Y66628D01*
X10179721Y69328D01*
X10179576Y69482D01*
X10179423Y69627D01*
X10176823Y72626D01*
X10176761Y72714D01*
X10176690Y72792D01*
X10174290Y75992D01*
X10174209Y76125D01*
X10174116Y76250D01*
X10172016Y79750D01*
X10171966Y79855D01*
X10171905Y79953D01*
X10170005Y83753D01*
X10169914Y83989D01*
X10169818Y84220D01*
X10168718Y87819D01*
X10168718Y87820D01*
X10168164Y89633D01*
X10168148Y89712D01*
X10168122Y89785D01*
X10167676Y91571D01*
X10167646Y91777D01*
X10167603Y91985D01*
X10167203Y95785D01*
X10167202Y95867D01*
X10167190Y95947D01*
X10166991Y99846D01*
X10166994Y99923D01*
X10166987Y100001D01*
Y301986D01*
X10117501D01*
X10116913Y302044D01*
X10116348Y302216D01*
X10115827Y302494D01*
X10115370Y302869D01*
X10114995Y303326D01*
X10114716Y303847D01*
X10114545Y304413D01*
X10114487Y305001D01*
Y375001D01*
X10114545Y375589D01*
X10114716Y376155D01*
X10114995Y376676D01*
X10115370Y377133D01*
X10115827Y377508D01*
X10116348Y377786D01*
X10116913Y377958D01*
X10117501Y378015D01*
X10300001D01*
X10300589Y377958D01*
D02*
G37*
G36*
X10898088Y377958D02*
X10898654Y377786D01*
X10899175Y377508D01*
X10899632Y377133D01*
X10900007Y376676D01*
X10900286Y376155D01*
X10900457Y375589D01*
X10900515Y375001D01*
Y305001D01*
X10900457Y304413D01*
X10900286Y303848D01*
X10900007Y303326D01*
X10899632Y302870D01*
X10899175Y302495D01*
X10898654Y302216D01*
X10898088Y302045D01*
X10897500Y301987D01*
X10848015D01*
Y100001D01*
X10848008Y99923D01*
X10848011Y99847D01*
X10847811Y95947D01*
X10847799Y95868D01*
X10847799Y95785D01*
X10847399Y91985D01*
X10847356Y91777D01*
X10847326Y91572D01*
X10846880Y89785D01*
X10846854Y89712D01*
X10846838Y89634D01*
X10846284Y87820D01*
X10846284Y87819D01*
X10845184Y84220D01*
X10845088Y83989D01*
X10844997Y83753D01*
X10843097Y79953D01*
X10843035Y79855D01*
X10842986Y79750D01*
X10840886Y76250D01*
X10840793Y76125D01*
X10840712Y75992D01*
X10838312Y72792D01*
X10838241Y72715D01*
X10838179Y72627D01*
X10835579Y69627D01*
X10835426Y69482D01*
X10835281Y69328D01*
X10832181Y66628D01*
X10832096Y66568D01*
X10832021Y66498D01*
X10828721Y63998D01*
X10828541Y63888D01*
X10828365Y63766D01*
X10824765Y61766D01*
X10824690Y61734D01*
X10824620Y61691D01*
X10820920Y59890D01*
X10820714Y59814D01*
X10820512Y59728D01*
X10816412Y58428D01*
X10816242Y58392D01*
X10816074Y58342D01*
X10812974Y57742D01*
X10812888Y57733D01*
X10812805Y57714D01*
X10809105Y57214D01*
X10808984Y57209D01*
X10808864Y57191D01*
X10805164Y56991D01*
X10805082Y56995D01*
X10805001Y56987D01*
X10755001D01*
X10754931Y56994D01*
X10754861Y56990D01*
X10750561Y57190D01*
X10750399Y57213D01*
X10750235Y57223D01*
X10746085Y57873D01*
X10745933Y57912D01*
X10745777Y57938D01*
X10741826Y58988D01*
X10741674Y59045D01*
X10741519Y59088D01*
X10737619Y60588D01*
X10737455Y60670D01*
X10737287Y60739D01*
X10734086Y62439D01*
X10734040Y62470D01*
X10733987Y62494D01*
X10730887Y64294D01*
X10730740Y64400D01*
X10730586Y64494D01*
X10727336Y66944D01*
X10727182Y67086D01*
X10727019Y67220D01*
X10724369Y69870D01*
X10724334Y69912D01*
X10724292Y69950D01*
X10721692Y72750D01*
X10721565Y72917D01*
X10721431Y73073D01*
X10719331Y76073D01*
X10719295Y76138D01*
X10719249Y76197D01*
X10717049Y79697D01*
X10716953Y79888D01*
X10716846Y80077D01*
X10715246Y83677D01*
X10715218Y83761D01*
X10715178Y83843D01*
X10713978Y87043D01*
X10713950Y87149D01*
X10713909Y87251D01*
X10713409Y88951D01*
X10713393Y89033D01*
X10713367Y89111D01*
X10712967Y90811D01*
X10712960Y90861D01*
X10712945Y90910D01*
X10712545Y92910D01*
X10712543Y92925D01*
X10712540Y92937D01*
X10712140Y95037D01*
X10712121Y95250D01*
X10712090Y95464D01*
X10711989Y97664D01*
X10711993Y97733D01*
X10711986Y97801D01*
Y100001D01*
Y305001D01*
Y375001D01*
X10712044Y375589D01*
X10712216Y376155D01*
X10712494Y376676D01*
X10712869Y377133D01*
X10713326Y377508D01*
X10713847Y377786D01*
X10714413Y377958D01*
X10715001Y378016D01*
X10897500D01*
X10898088Y377958D01*
D02*
G37*
D25*
X9460001Y435001D02*
D03*
Y265001D02*
D03*
X9240001D02*
D03*
Y435001D02*
D03*
D43*
X10080001Y7190001D02*
D03*
Y7827541D02*
D03*
D91*
X500001Y580001D02*
D03*
X539811Y619812D02*
D03*
X8935272Y5180052D02*
D03*
X8981335Y5066940D02*
D03*
X6210001Y3690001D02*
D03*
X6207435Y3747441D02*
D03*
X9010001Y5020001D02*
D03*
X5454502Y5325357D02*
D03*
X5500001Y5290001D02*
D03*
X8800001Y4230001D02*
D03*
X8834615Y4184376D02*
D03*
X6048751Y4400001D02*
D03*
X6105658Y4408054D02*
D03*
X8442834Y3875937D02*
D03*
D99*
X2992505Y7672501D02*
D03*
Y7848501D02*
D03*
X3175005Y7672501D02*
D03*
Y7848501D02*
D03*
X973500Y7677003D02*
D03*
Y7853004D02*
D03*
X1167600Y7677003D02*
D03*
Y7853004D02*
D03*
X2086000Y7241503D02*
D03*
Y7417504D02*
D03*
X7146001Y7667003D02*
D03*
Y7843003D02*
D03*
X6956001Y7667003D02*
D03*
Y7843003D02*
D03*
X5170101Y7667003D02*
D03*
Y7843003D02*
D03*
X4976001Y7667003D02*
D03*
Y7843003D02*
D03*
X6088501Y7231503D02*
D03*
Y7407503D02*
D03*
X8660001Y2045001D02*
D03*
Y2221001D02*
D03*
X1260002Y1805502D02*
D03*
Y1629502D02*
D03*
X440001Y1490001D02*
D03*
Y1314001D02*
D03*
Y990001D02*
D03*
Y1166001D02*
D03*
X630002Y1805502D02*
D03*
Y1629502D02*
D03*
X1486693Y3652501D02*
D03*
Y3828501D02*
D03*
Y3972501D02*
D03*
Y4148501D02*
D03*
D100*
X5739251Y6762503D02*
D03*
X6081251D02*
D03*
X4120001Y6845002D02*
D03*
X4462001D02*
D03*
X8030001Y6760001D02*
D03*
X7688001D02*
D03*
D101*
X2381000Y7975003D02*
D03*
Y7885003D02*
D03*
X2271000Y8286253D02*
D03*
Y8196253D02*
D03*
X1868500Y8286253D02*
D03*
Y8196253D02*
D03*
X1763500Y7975003D02*
D03*
Y7885003D02*
D03*
X2188500Y8286253D02*
D03*
Y8196253D02*
D03*
X1951000Y8286253D02*
D03*
Y8196253D02*
D03*
X6386001Y7972503D02*
D03*
Y7882503D02*
D03*
X6283501Y8283253D02*
D03*
Y8193253D02*
D03*
X5878501Y8283253D02*
D03*
Y8193253D02*
D03*
X5768501Y7972503D02*
D03*
Y7882503D02*
D03*
X6201001Y8283253D02*
D03*
Y8193253D02*
D03*
X5961001Y8283253D02*
D03*
Y8193253D02*
D03*
X8525001Y2100001D02*
D03*
Y2190001D02*
D03*
X4542389Y550001D02*
D03*
Y460001D02*
D03*
D102*
X1723500Y8352503D02*
D03*
X1633500D02*
D03*
X2213501Y7610004D02*
D03*
X2303500D02*
D03*
X1831000Y7602503D02*
D03*
X1921000D02*
D03*
X6216001Y7607503D02*
D03*
X6306001D02*
D03*
X5841001Y7600003D02*
D03*
X5931001D02*
D03*
X4320002Y6000001D02*
D03*
X4410001D02*
D03*
D104*
X9140001Y642501D02*
D03*
Y777501D02*
D03*
X6730001Y1797501D02*
D03*
Y1662501D02*
D03*
X9397871Y1314076D02*
D03*
Y1179076D02*
D03*
D105*
X11070001Y1602701D02*
D03*
X10816001Y1856701D02*
D03*
Y1348701D02*
D03*
X11324001Y1856701D02*
D03*
Y1348701D02*
D03*
X11070001Y3762652D02*
D03*
X10816001Y4016652D02*
D03*
Y3508652D02*
D03*
X11324001Y4016652D02*
D03*
Y3508652D02*
D03*
X11070001Y4690002D02*
D03*
X10816001Y4944002D02*
D03*
Y4436002D02*
D03*
X11324001Y4944002D02*
D03*
Y4436002D02*
D03*
X11070001Y2530001D02*
D03*
X10816001Y2784001D02*
D03*
Y2276001D02*
D03*
X11324001Y2784001D02*
D03*
Y2276001D02*
D03*
D106*
X6164001Y820001D02*
D03*
Y566001D02*
D03*
X5910001D02*
D03*
Y820001D02*
D03*
X6164001Y1328001D02*
D03*
Y1074001D02*
D03*
Y1582001D02*
D03*
X5910001Y1328001D02*
D03*
Y1074001D02*
D03*
Y1582001D02*
D03*
X1876001Y1621001D02*
D03*
Y1875001D02*
D03*
Y2129001D02*
D03*
Y2383001D02*
D03*
Y2637001D02*
D03*
Y2891001D02*
D03*
Y3145001D02*
D03*
Y3399001D02*
D03*
Y3653001D02*
D03*
Y3907001D02*
D03*
Y4161001D02*
D03*
Y4415001D02*
D03*
Y4669001D02*
D03*
Y4923001D02*
D03*
Y5177001D02*
D03*
Y5431001D02*
D03*
Y1367001D02*
D03*
X2130001Y1621001D02*
D03*
Y1875001D02*
D03*
Y2129001D02*
D03*
Y2383001D02*
D03*
Y2637001D02*
D03*
Y2891001D02*
D03*
Y3145001D02*
D03*
Y3399001D02*
D03*
Y3653001D02*
D03*
Y3907001D02*
D03*
Y4161001D02*
D03*
Y4415001D02*
D03*
Y4669001D02*
D03*
Y4923001D02*
D03*
Y5177001D02*
D03*
Y5431001D02*
D03*
X3330001D02*
D03*
Y5177001D02*
D03*
Y4923001D02*
D03*
Y4669001D02*
D03*
Y4415001D02*
D03*
Y4161001D02*
D03*
Y3907001D02*
D03*
Y3653001D02*
D03*
Y3399001D02*
D03*
Y3145001D02*
D03*
Y2891001D02*
D03*
Y2637001D02*
D03*
Y2383001D02*
D03*
Y2129001D02*
D03*
Y1875001D02*
D03*
Y1621001D02*
D03*
X3076001Y1367001D02*
D03*
Y5431001D02*
D03*
Y5177001D02*
D03*
Y4923001D02*
D03*
Y4669001D02*
D03*
Y4415001D02*
D03*
Y4161001D02*
D03*
Y3907001D02*
D03*
Y3653001D02*
D03*
Y3399001D02*
D03*
Y3145001D02*
D03*
Y2891001D02*
D03*
Y2637001D02*
D03*
Y2383001D02*
D03*
Y2129001D02*
D03*
Y1875001D02*
D03*
Y1621001D02*
D03*
X9876001Y2637001D02*
D03*
Y2129001D02*
D03*
Y1367001D02*
D03*
Y1621001D02*
D03*
Y1875001D02*
D03*
Y4669001D02*
D03*
Y4415001D02*
D03*
Y5431001D02*
D03*
Y4923001D02*
D03*
Y5177001D02*
D03*
Y3399001D02*
D03*
Y2891001D02*
D03*
Y3145001D02*
D03*
Y3907001D02*
D03*
X10130001Y2383001D02*
D03*
X9876001D02*
D03*
X10130001Y2637001D02*
D03*
Y2891001D02*
D03*
Y1875001D02*
D03*
Y1621001D02*
D03*
Y2129001D02*
D03*
X9876001Y4161001D02*
D03*
Y3653001D02*
D03*
X10130001Y4669001D02*
D03*
Y5431001D02*
D03*
Y4923001D02*
D03*
Y5177001D02*
D03*
Y3653001D02*
D03*
Y3145001D02*
D03*
Y3399001D02*
D03*
Y4415001D02*
D03*
Y3907001D02*
D03*
Y4161001D02*
D03*
D107*
X10780001Y170001D02*
D03*
X10235001D02*
D03*
D108*
X10750001Y473001D02*
D03*
X10265001D02*
D03*
D109*
X11003501Y7718503D02*
D03*
Y7972503D02*
D03*
D110*
X2130001Y1367001D02*
D03*
X3330001D02*
D03*
X10130001D02*
D03*
D111*
X900002Y8390002D02*
D03*
Y730001D02*
D03*
X11300002D02*
D03*
Y8390002D02*
D03*
D112*
X7880892Y8417784D02*
D03*
X6330002Y8417501D02*
D03*
X10387802Y8274271D02*
D03*
X9644489Y6172233D02*
D03*
X4941644Y1728593D02*
D03*
X4250179Y2569703D02*
D03*
X5387802Y2774272D02*
D03*
X5201537Y3321449D02*
D03*
X4724797Y3270271D02*
D03*
X4157802Y3896772D02*
D03*
X4039314Y3127519D02*
D03*
X887802Y3524272D02*
D03*
X4637802Y8274271D02*
D03*
Y7524272D02*
D03*
X3887802Y8274271D02*
D03*
Y7524272D02*
D03*
Y5774272D02*
D03*
X2887802D02*
D03*
X1887802D02*
D03*
Y6524272D02*
D03*
X887802D02*
D03*
Y5774272D02*
D03*
X6740001Y7560001D02*
D03*
X5730001Y1920001D02*
D03*
X2110001Y8410001D02*
D03*
X8530001Y2030001D02*
D03*
X4400001Y310051D02*
D03*
X9070001Y2710001D02*
D03*
X9150001D02*
D03*
X1260001Y80001D02*
D03*
X3590001D02*
D03*
X4932389Y450001D02*
D03*
X5360001Y1600001D02*
D03*
X9250001Y2250001D02*
D03*
X9554325Y2375112D02*
D03*
X8530001Y2260001D02*
D03*
X440001Y880002D02*
D03*
X4570001Y2320001D02*
D03*
X4488182Y2318182D02*
D03*
X1970001Y860001D02*
D03*
X3254001Y930001D02*
D03*
X1365460Y1194543D02*
D03*
X1350001Y4060001D02*
D03*
X5410001Y5620001D02*
D03*
X4830001Y5220001D02*
D03*
X5790001Y5990001D02*
D03*
X8580001Y6120001D02*
D03*
X11060002Y5370001D02*
D03*
X10547502Y6527501D02*
D03*
X10800002Y5370001D02*
D03*
X10540002D02*
D03*
X11053002Y6543001D02*
D03*
X10800002Y6540001D02*
D03*
X6439288Y8360714D02*
D03*
X6677499Y8247503D02*
D03*
X3960001Y6845002D02*
D03*
X4140001Y6545001D02*
D03*
X4550001Y6685001D02*
D03*
X4560001Y6545001D02*
D03*
X5680001Y6595002D02*
D03*
X5590001Y6715002D02*
D03*
Y6835002D02*
D03*
X5900001Y7005001D02*
D03*
X10792001Y6720001D02*
D03*
X11000001D02*
D03*
X4410001Y6080001D02*
D03*
X2709288Y8110714D02*
D03*
X9100001Y5790001D02*
D03*
X8430001Y7230001D02*
D03*
X5550001Y5190001D02*
D03*
X9180001Y5700001D02*
D03*
X7050001Y6300001D02*
D03*
X6440001Y6310001D02*
D03*
X5320002Y6210001D02*
D03*
X5240001Y5290001D02*
D03*
X7750002Y6290001D02*
D03*
X8240002Y5800001D02*
D03*
X9600001Y5170001D02*
D03*
X9190001Y4750001D02*
D03*
X9610001Y4690001D02*
D03*
X9590001Y4060001D02*
D03*
X9580001Y3570001D02*
D03*
Y3060001D02*
D03*
X9330001Y3310002D02*
D03*
X7810001Y2700001D02*
D03*
X8310001Y2730001D02*
D03*
X8520002Y3110001D02*
D03*
X8770002Y3380001D02*
D03*
X8850001Y3220001D02*
D03*
X9000002Y3580001D02*
D03*
X9100001Y3870001D02*
D03*
X8110002Y3540001D02*
D03*
X8390002Y3570001D02*
D03*
X8190001Y3740001D02*
D03*
X8270001Y3300001D02*
D03*
X7850002D02*
D03*
X7990002Y3010001D02*
D03*
X7520001D02*
D03*
X7340001Y2700001D02*
D03*
X7050001Y3000001D02*
D03*
X6620001Y2690001D02*
D03*
X6540001Y3000001D02*
D03*
X6122171Y2692501D02*
D03*
X5950002Y2780001D02*
D03*
X6150001Y3000001D02*
D03*
X5690002Y3030001D02*
D03*
X5610001Y3360001D02*
D03*
X5844901Y3351033D02*
D03*
X6270001Y3940001D02*
D03*
X6260001Y4100001D02*
D03*
X6200002Y4310001D02*
D03*
X6190001Y4510001D02*
D03*
X6170001Y4670001D02*
D03*
X6200002Y4840001D02*
D03*
X6160001Y4990001D02*
D03*
X450001Y3000001D02*
D03*
X1350001Y3700001D02*
D03*
Y1330001D02*
D03*
X1360001Y2990001D02*
D03*
X1289289Y7850714D02*
D03*
X859288Y7860714D02*
D03*
X1489289Y8120714D02*
D03*
X1759289Y7810714D02*
D03*
X3140001Y7970001D02*
D03*
X2949288Y7970714D02*
D03*
X2379288Y7800714D02*
D03*
X2269289Y8350714D02*
D03*
X1869288Y8360714D02*
D03*
X6029288Y8400714D02*
D03*
X5769288Y7800714D02*
D03*
X7150001Y7950001D02*
D03*
X6950001Y7960001D02*
D03*
X6389288Y7810714D02*
D03*
X6649288Y8100714D02*
D03*
X5739288Y8350714D02*
D03*
X5489288Y8100714D02*
D03*
X510002Y2190001D02*
D03*
X490002Y4790001D02*
D03*
X6120001Y8400001D02*
D03*
X960001Y7570001D02*
D03*
X2640001Y8230001D02*
D03*
X1170001Y7570001D02*
D03*
X1040001Y7410001D02*
D03*
X1490001Y8245001D02*
D03*
X1920001Y6990002D02*
D03*
X2090001D02*
D03*
X2290001D02*
D03*
X3140001Y7520001D02*
D03*
X2990001D02*
D03*
X2080001D02*
D03*
X6110001Y6530001D02*
D03*
X6250001Y6800001D02*
D03*
X6100001Y7030001D02*
D03*
X6250001Y7040001D02*
D03*
X6019501Y7520501D02*
D03*
X6119501D02*
D03*
X7240001Y7500002D02*
D03*
X8477001Y7780001D02*
D03*
Y7910001D02*
D03*
X8430001Y7340002D02*
D03*
X8190001Y6820001D02*
D03*
Y6710001D02*
D03*
X7570001Y7910001D02*
D03*
Y7780001D02*
D03*
X8690001Y2380001D02*
D03*
X790001Y1410001D02*
D03*
X460001Y1630001D02*
D03*
X290001Y1320001D02*
D03*
X292001Y1168001D02*
D03*
X520002Y2460001D02*
D03*
X1380002Y2190001D02*
D03*
X1480001Y4250001D02*
D03*
X1610001Y3180002D02*
D03*
X1410001D02*
D03*
X1350001Y3950001D02*
D03*
X1380002Y5310001D02*
D03*
X1320001Y4290001D02*
D03*
D113*
X7972802Y1069272D02*
D03*
X7810302Y614272D02*
D03*
X7697802Y1329536D02*
D03*
X8545262Y1315262D02*
D03*
X7685302Y796772D02*
D03*
X7680001Y970001D02*
D03*
X4317802Y6214272D02*
D03*
X4820001Y3350001D02*
D03*
X7330001Y2430001D02*
D03*
Y1920001D02*
D03*
X7190001Y2360001D02*
D03*
Y1920001D02*
D03*
X5400001Y3370001D02*
D03*
X5330001D02*
D03*
X7400001Y2080001D02*
D03*
X6730001Y1890001D02*
D03*
X7490001Y1900001D02*
D03*
X8100001Y1500001D02*
D03*
X9410001Y770001D02*
D03*
X8910001Y810001D02*
D03*
X5610001Y1010001D02*
D03*
X7040001Y1660001D02*
D03*
X4450001Y930001D02*
D03*
X4630001Y980001D02*
D03*
X4840001Y1150001D02*
D03*
X5010001D02*
D03*
X7060001Y670001D02*
D03*
X8540001Y1220001D02*
D03*
X7690001D02*
D03*
X7930001Y600001D02*
D03*
X8110001Y610001D02*
D03*
X2430001Y420001D02*
D03*
X5070001Y7970001D02*
D03*
X1630001Y3830001D02*
D03*
X6330001Y560001D02*
D03*
X9400001Y1410001D02*
D03*
X9260001Y1350001D02*
D03*
X9580001Y750001D02*
D03*
X8810001Y1680001D02*
D03*
X9630001Y1460001D02*
D03*
X7000001Y740001D02*
D03*
X2740001Y7570001D02*
D03*
X1400001D02*
D03*
X5480001Y8240001D02*
D03*
X5050001Y7440001D02*
D03*
Y7000001D02*
D03*
X5100001Y7110001D02*
D03*
X5320001Y7680001D02*
D03*
X5130001Y7570001D02*
D03*
X4980001D02*
D03*
X4990001Y7110001D02*
D03*
X5130001Y6900001D02*
D03*
X4960001D02*
D03*
X1350001Y4150001D02*
D03*
X510001Y4680001D02*
D03*
X1380001Y4720001D02*
D03*
X4410001Y2230001D02*
D03*
X7760001Y680001D02*
D03*
X7260426Y1030001D02*
D03*
X7400001Y680001D02*
D03*
X5120001Y3010001D02*
D03*
X4040001Y1910001D02*
D03*
X3730001Y650001D02*
D03*
Y770001D02*
D03*
X640001Y2330001D02*
D03*
X1380001Y2340001D02*
D03*
X1990001Y1020001D02*
D03*
X3260001Y1080001D02*
D03*
X4470001Y460001D02*
D03*
X5180001Y520001D02*
D03*
X5610001Y920001D02*
D03*
X7700001Y1150001D02*
D03*
X8120001Y1170001D02*
D03*
X8390001Y1460001D02*
D03*
X8540001Y1130001D02*
D03*
X7810001Y1460001D02*
D03*
X8100001Y780001D02*
D03*
X8480001Y620001D02*
D03*
X11270001Y5980001D02*
D03*
X11420001Y5370001D02*
D03*
Y6410001D02*
D03*
X9230001Y780001D02*
D03*
X9550001Y1350001D02*
D03*
X9600001Y120001D02*
D03*
X9580001Y617927D02*
D03*
X9070001Y390001D02*
D03*
X8540001Y870001D02*
D03*
X8467757Y5560829D02*
D03*
X8900001Y5130001D02*
D03*
X5380001Y1020001D02*
D03*
X8621848Y4054987D02*
D03*
X8598878Y5532194D02*
D03*
X8619384Y5409299D02*
D03*
X8339049Y5630954D02*
D03*
X8552305Y5488912D02*
D03*
X8408233Y5698233D02*
D03*
X8760040Y5271249D02*
D03*
X4470001Y550001D02*
D03*
X8829049Y5200954D02*
D03*
X8683543Y5355196D02*
D03*
X4880001Y3300001D02*
D03*
X5311717Y708285D02*
D03*
X8540001Y1380001D02*
D03*
X8550001Y670001D02*
D03*
X8900001Y5330001D02*
D03*
X8840001Y5280001D02*
D03*
X9169049Y5180954D02*
D03*
X9259049Y5100954D02*
D03*
X9057892Y5361962D02*
D03*
X9071912Y4972941D02*
D03*
X9114096Y4932276D02*
D03*
X8663911Y4095720D02*
D03*
X8711516Y4141060D02*
D03*
X7430001Y4390001D02*
D03*
X7470001Y4330001D02*
D03*
X7088141Y3120001D02*
D03*
X6248141Y3810001D02*
D03*
X6250001Y3870001D02*
D03*
X7090002Y3180002D02*
D03*
X6170001Y3440002D02*
D03*
X6234505D02*
D03*
X7320001Y5570001D02*
D03*
X7449049Y5430954D02*
D03*
X9110001Y4420001D02*
D03*
X9180001Y4480001D02*
D03*
X9010002Y4420001D02*
D03*
X9050001Y4640001D02*
D03*
X8910001Y4330001D02*
D03*
X8880002Y4130001D02*
D03*
X8700001Y5420001D02*
D03*
X8920001Y5430001D02*
D03*
X8629049Y3750954D02*
D03*
X8569049Y3690954D02*
D03*
X8400195Y3837130D02*
D03*
X8529049Y3960954D02*
D03*
X8483425Y3916786D02*
D03*
X8804148Y3933560D02*
D03*
X8746854Y3875494D02*
D03*
X8689049Y3810954D02*
D03*
X7614049Y5275866D02*
D03*
X7569049Y5230954D02*
D03*
X8643049Y5684954D02*
D03*
X8579049Y5750954D02*
D03*
X8770001Y5420001D02*
D03*
X8759049Y5600954D02*
D03*
X9100049Y5251954D02*
D03*
X7303463Y4172190D02*
D03*
D125*
X8051417Y3926241D02*
D03*
X7980706Y3996951D02*
D03*
X7945351Y4032307D02*
D03*
X7909996Y4067662D02*
D03*
X7874641Y4103017D02*
D03*
X7839285Y4138373D02*
D03*
X7803930Y4173728D02*
D03*
X7768575Y4209083D02*
D03*
X7733219Y4244439D02*
D03*
X7697864Y4279794D02*
D03*
X7662508Y4315149D02*
D03*
X7627153Y4350505D02*
D03*
X7591798Y4385860D02*
D03*
X7556442Y4421215D02*
D03*
X7521087Y4456571D02*
D03*
X7485732Y4491926D02*
D03*
X7450377Y4527282D02*
D03*
X7415021Y4562637D02*
D03*
X7379694Y4597964D02*
D03*
X8327217Y5545486D02*
D03*
X8362571Y5510133D02*
D03*
X8397925Y5474779D02*
D03*
X8433279Y5439425D02*
D03*
X8468633Y5404071D02*
D03*
X8503987Y5368717D02*
D03*
X8539340Y5333363D02*
D03*
X8574694Y5298010D02*
D03*
X8610048Y5262656D02*
D03*
X8645402Y5227302D02*
D03*
X8680756Y5191948D02*
D03*
X8716110Y5156594D02*
D03*
X8751463Y5121240D02*
D03*
X8786817Y5085887D02*
D03*
X8822171Y5050533D02*
D03*
X8857525Y5015179D02*
D03*
X8892879Y4979825D02*
D03*
X8928233Y4944471D02*
D03*
X8963586Y4909117D02*
D03*
X8998940Y4873764D02*
D03*
X8016062Y3961596D02*
D03*
D126*
X7379694Y4873764D02*
D03*
X7415048Y4909118D02*
D03*
X7450402Y4944472D02*
D03*
X7485756Y4979825D02*
D03*
X7521110Y5015179D02*
D03*
X7556464Y5050533D02*
D03*
X7591817Y5085887D02*
D03*
X7910002Y5404071D02*
D03*
X7945356Y5439425D02*
D03*
X7980709Y5474779D02*
D03*
X8016063Y5510133D02*
D03*
X8051417Y5545487D02*
D03*
X8963586Y4562610D02*
D03*
X8928233Y4527256D02*
D03*
X8892879Y4491902D02*
D03*
X8857525Y4456549D02*
D03*
X8822171Y4421195D02*
D03*
X8786817Y4385841D02*
D03*
X8751463Y4350487D02*
D03*
X8716110Y4315133D02*
D03*
X8680756Y4279779D02*
D03*
X8645402Y4244426D02*
D03*
X8610048Y4209072D02*
D03*
X8574694Y4173718D02*
D03*
X8539340Y4138364D02*
D03*
X8503987Y4103010D02*
D03*
X8468633Y4067656D02*
D03*
X8433279Y4032303D02*
D03*
X8397925Y3996949D02*
D03*
X8362571Y3961595D02*
D03*
X8327217Y3926241D02*
D03*
X8998940Y4597964D02*
D03*
X7627171Y5121241D02*
D03*
X7662525Y5156595D02*
D03*
X7697879Y5191948D02*
D03*
X7733233Y5227302D02*
D03*
X7768586Y5262656D02*
D03*
X7803940Y5298010D02*
D03*
X7874648Y5368718D02*
D03*
X7839294Y5333364D02*
D03*
D127*
X8189317Y4735864D02*
D03*
D128*
X4831301Y5389002D02*
D03*
Y5809002D02*
D03*
X4323301D02*
D03*
Y5389002D02*
D03*
D129*
X6401001Y7682503D02*
D03*
X6741001D02*
D03*
X5743501D02*
D03*
X5403501D02*
D03*
X2398500Y7692504D02*
D03*
X2738500D02*
D03*
X1741001D02*
D03*
X1401000D02*
D03*
D130*
X6767501Y2370001D02*
D03*
X6632501D02*
D03*
X6630001Y2500427D02*
D03*
X6765001D02*
D03*
X6852501Y619576D02*
D03*
X6987501D02*
D03*
X6787121Y750001D02*
D03*
X6922121D02*
D03*
X7912501Y2280427D02*
D03*
X8047501D02*
D03*
X7912501Y2160001D02*
D03*
X8047501D02*
D03*
X7912501Y2000427D02*
D03*
X8047501D02*
D03*
X7912501Y1870001D02*
D03*
X8047501D02*
D03*
D131*
X7110501Y1417076D02*
D03*
X6983501D02*
D03*
X6856501D02*
D03*
X6729501D02*
D03*
X7110501Y947076D02*
D03*
X6983501D02*
D03*
X6856501D02*
D03*
X6729501D02*
D03*
D132*
X7565077Y675001D02*
D03*
Y725001D02*
D03*
Y775001D02*
D03*
Y825001D02*
D03*
Y875001D02*
D03*
Y925001D02*
D03*
Y975001D02*
D03*
Y1025001D02*
D03*
Y1075001D02*
D03*
Y1125001D02*
D03*
Y1175001D02*
D03*
Y1225001D02*
D03*
Y1275001D02*
D03*
Y1325001D02*
D03*
Y1375001D02*
D03*
Y1425001D02*
D03*
X8701077D02*
D03*
Y1375001D02*
D03*
Y1325001D02*
D03*
Y1275001D02*
D03*
Y1225001D02*
D03*
Y1175001D02*
D03*
Y1125001D02*
D03*
Y1075001D02*
D03*
Y1025001D02*
D03*
Y975001D02*
D03*
Y925001D02*
D03*
Y875001D02*
D03*
Y825001D02*
D03*
Y775001D02*
D03*
Y725001D02*
D03*
Y675001D02*
D03*
D133*
X8508077Y482001D02*
D03*
X8458077D02*
D03*
X8408077D02*
D03*
X8358077D02*
D03*
X8308077D02*
D03*
X8258077D02*
D03*
X8208077D02*
D03*
X8158077D02*
D03*
X8108077D02*
D03*
X8058077D02*
D03*
X8008077D02*
D03*
X7958077D02*
D03*
X7908077D02*
D03*
X7858077D02*
D03*
X7808077D02*
D03*
X7758077D02*
D03*
Y1618001D02*
D03*
X7808077D02*
D03*
X7858077D02*
D03*
X7908077D02*
D03*
X7958077D02*
D03*
X8008077D02*
D03*
X8058077D02*
D03*
X8108077D02*
D03*
X8158077D02*
D03*
X8208077D02*
D03*
X8258077D02*
D03*
X8308077D02*
D03*
X8358077D02*
D03*
X8408077D02*
D03*
X8458077D02*
D03*
X8508077D02*
D03*
D134*
X7260426Y822501D02*
D03*
Y957501D02*
D03*
D135*
X7177501Y714576D02*
D03*
X7262501D02*
D03*
D136*
X8994576Y307001D02*
D03*
Y393001D02*
D03*
X9257871Y1269576D02*
D03*
Y1183576D02*
D03*
X9000001Y783001D02*
D03*
Y697001D02*
D03*
D137*
X9630001Y1552001D02*
D03*
Y1728001D02*
D03*
D138*
X8970001Y1660001D02*
D03*
X9090001D02*
D03*
D139*
X10507501Y452501D02*
D03*
X10442501D02*
D03*
X10572501D02*
D03*
X10637501D02*
D03*
D140*
X10377501D02*
D03*
D141*
X10411251Y145001D02*
D03*
X10603751D02*
D03*
D142*
X9547871Y1176076D02*
D03*
X9300001Y689501D02*
D03*
D143*
X9547871Y1257076D02*
D03*
X9300001Y770501D02*
D03*
D144*
X9490001Y832501D02*
D03*
Y747501D02*
D03*
D145*
X1941000Y8110323D02*
D03*
X1991000D02*
D03*
X2041000D02*
D03*
X2091000D02*
D03*
X2141000D02*
D03*
X2191000D02*
D03*
Y7709684D02*
D03*
X2141000D02*
D03*
X2091000D02*
D03*
X2041000D02*
D03*
X1991000D02*
D03*
X1941000D02*
D03*
X5951001Y8107823D02*
D03*
X6001001D02*
D03*
X6051001D02*
D03*
X6101001D02*
D03*
X6151001D02*
D03*
X6201001D02*
D03*
Y7707183D02*
D03*
X6151001D02*
D03*
X6101001D02*
D03*
X6051001D02*
D03*
X6001001D02*
D03*
X5951001D02*
D03*
D146*
X2266320Y8035003D02*
D03*
X1865680D02*
D03*
X2266320Y7785003D02*
D03*
X1865680D02*
D03*
X2266320Y7835003D02*
D03*
X1865680D02*
D03*
Y7885004D02*
D03*
X2266320D02*
D03*
Y7935003D02*
D03*
X1865680D02*
D03*
Y7985004D02*
D03*
X2266320D02*
D03*
X6276321Y8032503D02*
D03*
X5875681D02*
D03*
X6276321Y7782503D02*
D03*
X5875681D02*
D03*
X6276321Y7832503D02*
D03*
X5875681D02*
D03*
Y7882503D02*
D03*
X6276321D02*
D03*
Y7932503D02*
D03*
X5875681D02*
D03*
Y7982503D02*
D03*
X6276321D02*
D03*
D147*
X2066000Y7910003D02*
D03*
X6076001Y7907503D02*
D03*
D148*
X2195000Y8360003D02*
D03*
Y8486503D02*
D03*
X1951000Y8357503D02*
D03*
Y8484003D02*
D03*
X2033500Y8204003D02*
D03*
Y8330503D02*
D03*
X2111000Y8204003D02*
D03*
Y8330503D02*
D03*
X6038501Y8200003D02*
D03*
Y8326503D02*
D03*
X6121001Y8200003D02*
D03*
Y8326503D02*
D03*
D149*
X2546000Y8112004D02*
D03*
X2376000D02*
D03*
X1763500Y8122004D02*
D03*
X1593500D02*
D03*
X2376000Y8242504D02*
D03*
X2546000D02*
D03*
X1763500Y8247504D02*
D03*
X1593500D02*
D03*
X6378501Y8125003D02*
D03*
X6548501D02*
D03*
X5606001D02*
D03*
X5776001D02*
D03*
X6548501Y8252503D02*
D03*
X6378501D02*
D03*
X5606001Y8242503D02*
D03*
X5776001D02*
D03*
X2290001Y1022360D02*
D03*
X2120001D02*
D03*
X3550002Y1080001D02*
D03*
X3380001D02*
D03*
X4660001Y2800001D02*
D03*
X4830001D02*
D03*
X4830002Y2670001D02*
D03*
X4660001D02*
D03*
Y2945001D02*
D03*
X4830002D02*
D03*
X4055001Y776203D02*
D03*
X3885001D02*
D03*
Y646203D02*
D03*
X4055001D02*
D03*
D150*
X6326501Y8350001D02*
D03*
X6200001D02*
D03*
X5960001D02*
D03*
X5833501D02*
D03*
D151*
X8243001Y7310001D02*
D03*
X7710001D02*
D03*
X8617001Y7307503D02*
D03*
X9150001D02*
D03*
X7710001Y7840002D02*
D03*
X8243001D02*
D03*
X8617001D02*
D03*
X9150001D02*
D03*
D152*
X2451000Y7247503D02*
D03*
X3111000D02*
D03*
X1036500D02*
D03*
X1696500D02*
D03*
X6453501Y7237503D02*
D03*
X7113501D02*
D03*
X5041001D02*
D03*
X5701001D02*
D03*
D153*
X2248500Y7444503D02*
D03*
X1891000Y7450003D02*
D03*
X6258501Y7442503D02*
D03*
X5901001Y7447503D02*
D03*
D154*
X2248500Y7254503D02*
D03*
X1891000Y7260003D02*
D03*
X6258501Y7252503D02*
D03*
X5901001Y7257503D02*
D03*
D155*
X10890001Y7230002D02*
D03*
D156*
X10786001Y6855002D02*
D03*
X10994001D02*
D03*
D157*
X8990001Y5510001D02*
D03*
X9110210Y5630210D02*
D03*
X8900002Y5600002D02*
D03*
X9020210Y5720210D02*
D03*
X9059001Y4169001D02*
D03*
X9179210Y4289210D02*
D03*
D158*
X9421782Y2503185D02*
D03*
Y2376185D02*
D03*
Y2249185D02*
D03*
Y2122185D02*
D03*
X8856783D02*
D03*
X8856782Y2249185D02*
D03*
X8856783Y2376185D02*
D03*
X8856782Y2503185D02*
D03*
X643477Y1073502D02*
D03*
Y1454502D02*
D03*
Y1200502D02*
D03*
Y1327502D02*
D03*
X1208477Y1200502D02*
D03*
Y1073502D02*
D03*
Y1327502D02*
D03*
Y1454502D02*
D03*
D159*
X8580001Y2850001D02*
D03*
Y2680001D02*
D03*
X8885001Y2853502D02*
D03*
Y3023502D02*
D03*
X8540001Y2360001D02*
D03*
Y2530001D02*
D03*
X9350001Y3030001D02*
D03*
Y2860001D02*
D03*
X9650002Y2580001D02*
D03*
Y2410001D02*
D03*
X9645001Y2858502D02*
D03*
Y2688501D02*
D03*
X9040001Y3330001D02*
D03*
Y3160001D02*
D03*
X9170001Y3330001D02*
D03*
Y3160001D02*
D03*
X8730001Y2860001D02*
D03*
Y2690001D02*
D03*
X9040001Y2850001D02*
D03*
Y3020001D02*
D03*
X9180001Y2850001D02*
D03*
Y3020001D02*
D03*
X9495001Y2856001D02*
D03*
Y2686001D02*
D03*
X5020001Y5320001D02*
D03*
Y5490001D02*
D03*
X5265226Y980001D02*
D03*
Y810001D02*
D03*
X4738949D02*
D03*
Y980001D02*
D03*
X4914374D02*
D03*
Y810001D02*
D03*
X5089800Y980002D02*
D03*
Y810001D02*
D03*
X11420002Y5512502D02*
D03*
Y5682502D02*
D03*
X11417502Y5980002D02*
D03*
Y5810002D02*
D03*
X11415002Y6270002D02*
D03*
Y6100002D02*
D03*
X4037501Y2357501D02*
D03*
Y2527501D02*
D03*
X4042501Y1455001D02*
D03*
Y1285001D02*
D03*
X3915001Y446203D02*
D03*
Y276203D02*
D03*
X4040002Y1605001D02*
D03*
Y1775001D02*
D03*
X4035002Y2237501D02*
D03*
Y2067501D02*
D03*
X5020001Y2750001D02*
D03*
Y2920001D02*
D03*
X5210001Y2750001D02*
D03*
Y2920001D02*
D03*
D160*
X5150001Y6785001D02*
D03*
X5460001D02*
D03*
X4650001Y6785002D02*
D03*
X4960001D02*
D03*
X7680001Y7040001D02*
D03*
X7990001D02*
D03*
D161*
X5786401Y6505003D02*
D03*
X5962401D02*
D03*
X4254001Y6545002D02*
D03*
X4430001D02*
D03*
X7214001Y6760001D02*
D03*
X7390001D02*
D03*
X2112501Y866520D02*
D03*
X2288501D02*
D03*
X3384001Y930001D02*
D03*
X3560001D02*
D03*
D162*
X8457104Y3802113D02*
D03*
X8520744Y3738473D02*
D03*
X8876362Y4253641D02*
D03*
X8940001Y4190001D02*
D03*
X8518092Y3861498D02*
D03*
X8581731Y3797859D02*
D03*
X7505062Y5384511D02*
D03*
X7568702Y5320872D02*
D03*
X8577477Y3922486D02*
D03*
X8641116Y3858846D02*
D03*
X8697850Y4042859D02*
D03*
X8761490Y3979219D02*
D03*
X8637663Y3982672D02*
D03*
X8701303Y3919033D02*
D03*
D163*
X9060001Y4470001D02*
D03*
X9123641Y4533641D02*
D03*
X7352960Y4221688D02*
D03*
X7416599Y4285327D02*
D03*
X9146886Y4987762D02*
D03*
X9210525Y5051401D02*
D03*
X9064685Y5069963D02*
D03*
X9128324Y5133602D02*
D03*
X8993484Y5143164D02*
D03*
X9057123Y5206804D02*
D03*
X8950824Y5253676D02*
D03*
X9014463Y5317315D02*
D03*
X8790002Y5330002D02*
D03*
X8853641Y5393642D02*
D03*
X8473470Y5640648D02*
D03*
X8537110Y5704287D02*
D03*
X8541388Y5572730D02*
D03*
X8605028Y5636370D02*
D03*
X8654305Y5489813D02*
D03*
X8717945Y5553452D02*
D03*
D164*
X450001Y2695005D02*
D03*
Y2884997D02*
D03*
X400001Y2524997D02*
D03*
Y2335005D02*
D03*
X1070977Y1812498D02*
D03*
Y1622506D02*
D03*
X813477Y1812498D02*
D03*
Y1622506D02*
D03*
X1410001Y3487497D02*
D03*
Y3297505D02*
D03*
X1612501Y3487497D02*
D03*
Y3297505D02*
D03*
D165*
X1252497Y2192501D02*
D03*
X1062505D02*
D03*
X617505Y2190001D02*
D03*
X807497D02*
D03*
X1060977Y1995002D02*
D03*
X1250969D02*
D03*
X810969D02*
D03*
X620977D02*
D03*
D166*
X1222502Y5117501D02*
D03*
Y5182501D02*
D03*
Y5052501D02*
D03*
Y5312501D02*
D03*
Y5247501D02*
D03*
Y4727501D02*
D03*
Y4792501D02*
D03*
Y4922501D02*
D03*
Y4987501D02*
D03*
Y4857501D02*
D03*
X642502Y5052501D02*
D03*
Y5117501D02*
D03*
Y4987501D02*
D03*
Y5247501D02*
D03*
Y5312501D02*
D03*
Y5182501D02*
D03*
Y4727501D02*
D03*
Y4857501D02*
D03*
Y4922501D02*
D03*
Y4792501D02*
D03*
X642502Y2460100D02*
D03*
Y2590100D02*
D03*
Y2525100D02*
D03*
Y2395100D02*
D03*
Y2850100D02*
D03*
Y2980100D02*
D03*
Y2915100D02*
D03*
Y2655100D02*
D03*
Y2785100D02*
D03*
Y2720100D02*
D03*
X1222502Y2525100D02*
D03*
Y2655100D02*
D03*
Y2590100D02*
D03*
Y2460100D02*
D03*
Y2395100D02*
D03*
Y2915100D02*
D03*
Y2980100D02*
D03*
Y2720100D02*
D03*
Y2850100D02*
D03*
Y2785100D02*
D03*
D167*
X1218362Y4181263D02*
D03*
Y4116263D02*
D03*
Y4051263D02*
D03*
Y3986263D02*
D03*
Y3921263D02*
D03*
Y3856263D02*
D03*
Y3791263D02*
D03*
Y3726263D02*
D03*
Y3661263D02*
D03*
Y3596263D02*
D03*
Y3531263D02*
D03*
Y3466263D02*
D03*
Y3401263D02*
D03*
Y3336263D02*
D03*
X644362D02*
D03*
Y3401263D02*
D03*
Y3466263D02*
D03*
Y3531263D02*
D03*
Y3596263D02*
D03*
Y3661263D02*
D03*
Y3726263D02*
D03*
Y3791263D02*
D03*
Y4181263D02*
D03*
Y4116263D02*
D03*
Y4051263D02*
D03*
Y3986263D02*
D03*
Y3921263D02*
D03*
Y3856263D02*
D03*
D168*
X2310001Y610001D02*
D03*
Y160001D02*
D03*
X1470001D02*
D03*
Y610001D02*
D03*
X3400001D02*
D03*
X2560001Y160001D02*
D03*
Y610001D02*
D03*
X3400001Y160001D02*
D03*
D169*
X4842389Y385001D02*
D03*
Y450001D02*
D03*
Y515001D02*
D03*
X4652389D02*
D03*
Y450001D02*
D03*
Y385001D02*
D03*
D170*
X5213501Y2359502D02*
D03*
Y2232502D02*
D03*
Y2105502D02*
D03*
Y1978502D02*
D03*
Y1851502D02*
D03*
Y1724502D02*
D03*
Y1597502D02*
D03*
Y1470502D02*
D03*
X4253501D02*
D03*
Y1597502D02*
D03*
Y1724502D02*
D03*
Y1851502D02*
D03*
Y1978502D02*
D03*
Y2105502D02*
D03*
Y2232502D02*
D03*
Y2359502D02*
D03*
D171*
X4457802Y5034272D02*
D03*
X4537802D02*
D03*
X4617802D02*
D03*
X4697802D02*
D03*
X4777802D02*
D03*
X4857802D02*
D03*
X4937802D02*
D03*
X5017802D02*
D03*
X5097802D02*
D03*
X5177802D02*
D03*
X5497802D02*
D03*
X5577802D02*
D03*
X5657802D02*
D03*
X5737802D02*
D03*
X5817802D02*
D03*
X4377802Y4954272D02*
D03*
X4457802D02*
D03*
X4537802D02*
D03*
X4617802D02*
D03*
X4697802D02*
D03*
X4777802D02*
D03*
X4857802D02*
D03*
X4937802D02*
D03*
X5017802D02*
D03*
X5097802D02*
D03*
X5177802D02*
D03*
X5417802D02*
D03*
X5497802D02*
D03*
X5577802D02*
D03*
X5657802D02*
D03*
X5737802D02*
D03*
X5817802D02*
D03*
X5897802D02*
D03*
X4377802Y4874271D02*
D03*
X4457802D02*
D03*
X4537802D02*
D03*
X4617802D02*
D03*
X4697802D02*
D03*
X4777802D02*
D03*
X4857802D02*
D03*
X4937802D02*
D03*
X5017802D02*
D03*
X5097802D02*
D03*
X5177802D02*
D03*
X5497802D02*
D03*
X5577802D02*
D03*
X5657802D02*
D03*
X5737802D02*
D03*
X5817802D02*
D03*
X5897802D02*
D03*
X4377802Y4794272D02*
D03*
X4457802D02*
D03*
X4537802D02*
D03*
X4617802D02*
D03*
X4697802D02*
D03*
X4777802D02*
D03*
X4857802D02*
D03*
X4937802D02*
D03*
X5017802D02*
D03*
X5097802D02*
D03*
X5497802D02*
D03*
X5577802D02*
D03*
X5657802D02*
D03*
X5737802D02*
D03*
X5817802D02*
D03*
X5897802D02*
D03*
X4377802Y4714271D02*
D03*
X4457802D02*
D03*
X4537802D02*
D03*
X4617802D02*
D03*
X4697802D02*
D03*
X4777802D02*
D03*
X4857802D02*
D03*
X4937802D02*
D03*
X5017802D02*
D03*
X5097802D02*
D03*
X5497802D02*
D03*
X5577802D02*
D03*
X5657802D02*
D03*
X5737802D02*
D03*
X5817802D02*
D03*
X5897802D02*
D03*
X4377802Y4634272D02*
D03*
X4457802D02*
D03*
X4537802D02*
D03*
X4617802D02*
D03*
X4697802D02*
D03*
X4777802D02*
D03*
X4857802D02*
D03*
X4937802D02*
D03*
X5017802D02*
D03*
X5097802D02*
D03*
X5177802D02*
D03*
X5257802D02*
D03*
X5337802D02*
D03*
X5417802D02*
D03*
X5497802D02*
D03*
X5577802D02*
D03*
X5657802D02*
D03*
X5737802D02*
D03*
X5817802D02*
D03*
X5897802D02*
D03*
X4377802Y4554272D02*
D03*
X4457802D02*
D03*
X4537802D02*
D03*
X4617802D02*
D03*
X4697802D02*
D03*
X4777802D02*
D03*
X4857802D02*
D03*
X4937802D02*
D03*
X5017802D02*
D03*
X5097802D02*
D03*
X5177802D02*
D03*
X5257802D02*
D03*
X5337802D02*
D03*
X5417802D02*
D03*
X5497802D02*
D03*
X5577802D02*
D03*
X5657802D02*
D03*
X5737802D02*
D03*
X5817802D02*
D03*
X5897802D02*
D03*
X4377802Y4474271D02*
D03*
X4457802D02*
D03*
X4537802D02*
D03*
X4617802D02*
D03*
X4697802D02*
D03*
X4777802D02*
D03*
X4857802D02*
D03*
X4937802D02*
D03*
X5017802D02*
D03*
X5097802D02*
D03*
X5177802D02*
D03*
X5257802D02*
D03*
X5337802D02*
D03*
X5417802D02*
D03*
X5497802D02*
D03*
X5577802D02*
D03*
X5657802D02*
D03*
X5737802D02*
D03*
X5817802D02*
D03*
X5897802D02*
D03*
X4377802Y4394272D02*
D03*
X4457802D02*
D03*
X4537802D02*
D03*
X4617802D02*
D03*
X4697802D02*
D03*
X4777802D02*
D03*
X4857802D02*
D03*
X4937802D02*
D03*
X5017802D02*
D03*
X5097802D02*
D03*
X5177802D02*
D03*
X5257802D02*
D03*
X5337802D02*
D03*
X5417802D02*
D03*
X5497802D02*
D03*
X5577802D02*
D03*
X5657802D02*
D03*
X5737802D02*
D03*
X5817802D02*
D03*
X5897802D02*
D03*
X4377802Y4314272D02*
D03*
X4457802D02*
D03*
X4537802D02*
D03*
X4617802D02*
D03*
X4697802D02*
D03*
X4777802D02*
D03*
X4857802D02*
D03*
X4937802D02*
D03*
X5017802D02*
D03*
X5097802D02*
D03*
X5177802D02*
D03*
X5257802D02*
D03*
X5337802D02*
D03*
X5417802D02*
D03*
X5497802D02*
D03*
X5577802D02*
D03*
X5657802D02*
D03*
X5737802D02*
D03*
X5817802D02*
D03*
X5897802D02*
D03*
X4377802Y4234272D02*
D03*
X4457802D02*
D03*
X4537802D02*
D03*
X4617802D02*
D03*
X4697802D02*
D03*
X4777802D02*
D03*
X4857802D02*
D03*
X4937802D02*
D03*
X5017802D02*
D03*
X5097802D02*
D03*
X5177802D02*
D03*
X5257802D02*
D03*
X5337802D02*
D03*
X5417802D02*
D03*
X5497802D02*
D03*
X5577802D02*
D03*
X5657802D02*
D03*
X5737802D02*
D03*
X5817802D02*
D03*
X5897802D02*
D03*
X4457802Y4154272D02*
D03*
X4537802D02*
D03*
X4617802D02*
D03*
X4697802D02*
D03*
X4777802D02*
D03*
X4857802D02*
D03*
X4937802D02*
D03*
X5017802D02*
D03*
X5097802D02*
D03*
X5177802D02*
D03*
X5257802D02*
D03*
X5337802D02*
D03*
X5417802D02*
D03*
X5497802D02*
D03*
X5577802D02*
D03*
X5657802D02*
D03*
X5737802D02*
D03*
X5817802D02*
D03*
X5897802D02*
D03*
X4377802Y4074272D02*
D03*
X4457802D02*
D03*
X4537802D02*
D03*
X4617802D02*
D03*
X4697802D02*
D03*
X4777802D02*
D03*
X4857802D02*
D03*
X4937802D02*
D03*
X5017802D02*
D03*
X5097802D02*
D03*
X5177802D02*
D03*
X5257802D02*
D03*
X5337802D02*
D03*
X5417802D02*
D03*
X5497802D02*
D03*
X5577802D02*
D03*
X5657802D02*
D03*
X5737802D02*
D03*
X5817802D02*
D03*
X5897802D02*
D03*
X4377802Y3994272D02*
D03*
X4457802D02*
D03*
X4537802D02*
D03*
X4617802D02*
D03*
X4697802D02*
D03*
X4777802D02*
D03*
X4857802D02*
D03*
X4937802D02*
D03*
X5017802D02*
D03*
X5097802D02*
D03*
X5177802D02*
D03*
X5257802D02*
D03*
X5337802D02*
D03*
X5417802D02*
D03*
X5497802D02*
D03*
X5577802D02*
D03*
X5657802D02*
D03*
X5737802D02*
D03*
X5817802D02*
D03*
X5897802D02*
D03*
X4377802Y3914272D02*
D03*
X4457802D02*
D03*
X4537802D02*
D03*
X4617802D02*
D03*
X4697802D02*
D03*
X5577802D02*
D03*
X5657802D02*
D03*
X5737802D02*
D03*
X5817802D02*
D03*
X5897802D02*
D03*
X4377802Y3834272D02*
D03*
X4457802D02*
D03*
X4537802D02*
D03*
X4617802D02*
D03*
X4697802D02*
D03*
X4777802D02*
D03*
X4857802D02*
D03*
X4937802D02*
D03*
X5017802D02*
D03*
X5097802D02*
D03*
X5177802D02*
D03*
X5257802D02*
D03*
X5337802D02*
D03*
X5417802D02*
D03*
X5497802D02*
D03*
X5577802D02*
D03*
X5657802D02*
D03*
X5737802D02*
D03*
X5817802D02*
D03*
X5897802D02*
D03*
X4377802Y3754272D02*
D03*
X4457802D02*
D03*
X4537802D02*
D03*
X4617802D02*
D03*
X4697802D02*
D03*
X4777802D02*
D03*
X4857802D02*
D03*
X4937802D02*
D03*
X5017802D02*
D03*
X5097802D02*
D03*
X5177802D02*
D03*
X5257802D02*
D03*
X5337802D02*
D03*
X5417802D02*
D03*
X5497802D02*
D03*
X5577802D02*
D03*
X5657802D02*
D03*
X5737802D02*
D03*
X5817802D02*
D03*
X5897802D02*
D03*
X4377802Y3674272D02*
D03*
X4457802D02*
D03*
X4537802D02*
D03*
X4617802D02*
D03*
X4697802D02*
D03*
X4777802D02*
D03*
X4857802D02*
D03*
X4937802D02*
D03*
X5017802D02*
D03*
X5097802D02*
D03*
X5177802D02*
D03*
X5257802D02*
D03*
X5337802D02*
D03*
X5417802D02*
D03*
X5497802D02*
D03*
X5577802D02*
D03*
X5657802D02*
D03*
X5737802D02*
D03*
X5817802D02*
D03*
X5897802D02*
D03*
X4377802Y3594272D02*
D03*
X4457802D02*
D03*
X4537802D02*
D03*
X4617802D02*
D03*
X4697802D02*
D03*
X4777802D02*
D03*
X4857802D02*
D03*
X4937802D02*
D03*
X5017802D02*
D03*
X5097802D02*
D03*
X5177802D02*
D03*
X5257802D02*
D03*
X5337802D02*
D03*
X5417802D02*
D03*
X5497802D02*
D03*
X5577802D02*
D03*
X5657802D02*
D03*
X5737802D02*
D03*
X5817802D02*
D03*
X5897802D02*
D03*
X4457802Y3514272D02*
D03*
X4537802D02*
D03*
X4697802D02*
D03*
X4777802D02*
D03*
X4857802D02*
D03*
X4937802D02*
D03*
X5177802D02*
D03*
X5257802D02*
D03*
X5417802D02*
D03*
X5497802D02*
D03*
X5577802D02*
D03*
X5657802D02*
D03*
X5817802D02*
D03*
X4377802Y4154272D02*
D03*
X5177802Y4794272D02*
D03*
Y4714271D02*
D03*
X5257802Y4954272D02*
D03*
Y4874271D02*
D03*
Y4794272D02*
D03*
Y4714271D02*
D03*
Y5034272D02*
D03*
X5337802D02*
D03*
Y4954272D02*
D03*
Y4874271D02*
D03*
Y4794272D02*
D03*
Y4714271D02*
D03*
X5417802Y5034272D02*
D03*
Y4874271D02*
D03*
Y4794272D02*
D03*
Y4714271D02*
D03*
D172*
X10545002Y5535652D02*
D03*
Y6360652D02*
D03*
X10799002D02*
D03*
X11053002Y5535652D02*
D03*
X10799002D02*
D03*
X11053002Y6360652D02*
D03*
D173*
X4255001Y279703D02*
D03*
X4065001D02*
D03*
X4160001Y479703D02*
D03*
D174*
X4180001Y770001D02*
D03*
X4340001D02*
D03*
X4175001Y646203D02*
D03*
X4335001D02*
D03*
D175*
X9503001Y617927D02*
D03*
X9417001D02*
D03*
D176*
X10797493Y472987D02*
D03*
X10217493D02*
D03*
%TF.MD5,fe53af293332460402c9f921019b583b*%
M02*
