%TF.GenerationSoftware,Altium Limited,Altium Designer,23.5.1 (21)*%
G04 Layer_Color=16711935*
%FSLAX45Y45*%
%MOMM*%
%TF.SameCoordinates,DF551FB5-6F85-4ABD-ABAF-5ACF3DF1BB5E*%
%TF.FilePolarity,Positive*%
%TF.FileFunction,Other,Capping*%
%TF.Part,Single*%
G01*
G75*
%TA.AperFunction,SMDPad,CuDef*%
%ADD178C,0.45000*%
D178*
X7913546Y4460092D02*
D03*
X7821622Y4552016D02*
D03*
X7729698Y4643940D02*
D03*
X7637774Y4735864D02*
D03*
X8005469Y4368168D02*
D03*
X8189317Y4184321D02*
D03*
X8097393Y4276244D02*
D03*
X8465089Y5011635D02*
D03*
X8373165Y5103559D02*
D03*
X8281241Y5195483D02*
D03*
X8189317Y5287407D02*
D03*
X8557013Y4919712D02*
D03*
X8740860Y4735864D02*
D03*
X8648936Y4827788D02*
D03*
X8097393Y4643940D02*
D03*
X8005469Y4735864D02*
D03*
X7913546Y4827788D02*
D03*
X7821622Y4919712D02*
D03*
X8189317Y4552016D02*
D03*
X8373165Y4368168D02*
D03*
X8281241Y4460092D02*
D03*
X8005469Y4552016D02*
D03*
X7913546Y4643940D02*
D03*
X7821622Y4735864D02*
D03*
X7729698Y4827788D02*
D03*
X8097393Y4460092D02*
D03*
X8281241Y4276244D02*
D03*
X8189317Y4368168D02*
D03*
Y4735864D02*
D03*
X8097393Y4827788D02*
D03*
X8005469Y4919712D02*
D03*
X7913546Y5011635D02*
D03*
X8281241Y4643940D02*
D03*
X8465089Y4460092D02*
D03*
X8373165Y4552016D02*
D03*
X8281241Y4827788D02*
D03*
X8189317Y4919712D02*
D03*
X8097393Y5011635D02*
D03*
X8005469Y5103559D02*
D03*
X8373165Y4735864D02*
D03*
X8557013Y4552016D02*
D03*
X8465089Y4643940D02*
D03*
X8373165Y4919712D02*
D03*
X8281241Y5011635D02*
D03*
X8189317Y5103559D02*
D03*
X8097393Y5195483D02*
D03*
X8465089Y4827788D02*
D03*
X8648936Y4643940D02*
D03*
X8557013Y4735864D02*
D03*
%TF.MD5,4d033876c20c11d0f080d08fa2b53cb8*%
M02*
